# xmcd
#
# Track frame offsets:
#	182
#	31445
#	54472
#	74975
#	93190
#	118310
#	151835
#	165185
#
# Disc length: 2384 seconds
# Revision: 0
# Processed by: cddbd v1.5.2PL0 Copyright (c) Steve Scherf et al.
# Submitted via: dBpowerAMP V12.0
#
DISCID=65094e08
DTITLE=Jane Child - Don’t Wanna Fall In Love
DYEAR=1990
DGENRE=New Jack Swing
TTITLE0=Don’t Wanna Fall In Love [Knife Feel Good Mix]
TTITLE1=Don’t Wanna Fall In Love [T.R. Dub]
TTITLE2=Don’t Wanna Fall In Love [AccaPercaPella]
TTITLE3=Don’t Wanna Fall In Love [7” Remix Version]
TTITLE4=Don’t Wanna Fall In Love [New Jack Swing Club]
TTITLE5=Don’t Wanna Fall In Love [T.R. Club-A-Dub]
TTITLE6=Don’t Wanna Fall In Love [Bonus Beats]
TTITLE7=World Lullabye [LP Version]
EXTD=
EXTT0=
EXTT1=
EXTT2=
EXTT3=
EXTT4=
EXTT5=
EXTT6=
EXTT7=
PLAYORDER=
